<svg width="24" height="24" viewBox="0 0 24 24" fill="none" xmlns="http://www.w3.org/2000/svg">
<path fill-rule="evenodd" clip-rule="evenodd" d="M8.52136 6.25C7.68981 6.25 7.02512 6.74696 6.56967 7.23155C6.09944 7.73187 5.73632 8.33997 5.503 8.82077C5.33125 9.17468 5.27451 9.54233 5.26647 9.86669C5.26462 9.94157 5.26222 10.0177 5.25984 10.0934C5.2538 10.2852 5.24784 10.4747 5.25086 10.6363C5.25531 10.8737 5.27814 11.1398 5.37734 11.407C5.59023 11.9806 6.06527 12.3276 6.65784 12.656C7.28595 13.0041 7.70958 13.2138 8.05768 13.3293C8.43752 13.4554 8.70994 13.4629 8.97734 13.4633C8.98607 13.466 9.00658 13.4731 9.03762 13.4903C9.09705 13.5231 9.16399 13.5762 9.21985 13.6471C9.31628 13.7696 9.39901 13.9644 9.30299 14.2845C8.9923 15.3201 9.15401 16.7495 9.5772 17.784C9.78817 18.2997 10.1112 18.8362 10.5897 19.1553C10.8419 19.3234 11.1466 19.4362 11.49 19.4336C11.8323 19.4309 12.1522 19.3141 12.4374 19.124C13.8315 18.1946 14.3752 16.4091 14.6572 15.0976C14.7542 14.6468 14.8307 14.192 14.893 13.8222C14.9224 13.6476 14.9486 13.4919 14.9722 13.3644C14.9906 13.2656 15.0069 13.1857 15.0214 13.1219C15.1065 13.0782 15.1764 13.0309 15.2281 12.9933C15.384 12.8799 15.5288 12.7378 15.6541 12.6003C15.9072 12.3227 16.1564 11.9791 16.3545 11.6822C16.4884 11.4815 16.6286 11.209 16.6807 10.9002C16.7353 10.576 16.6962 10.1606 16.3889 9.81128C16.0781 9.458 15.6105 9.25 15.0214 9.25C14.9324 9.25 14.7492 9.1932 14.4831 8.99C14.2343 8.79991 13.9962 8.54526 13.8155 8.31635C13.7966 8.29248 13.7714 8.24059 13.7714 8.15139C13.7714 7.10128 12.9201 6.25 11.87 6.25H8.52136ZM6.85249 9.47565C7.04481 9.07933 7.32952 8.61332 7.6627 8.25882C8.01066 7.88859 8.30495 7.75 8.52136 7.75H11.87C12.0917 7.75 12.2714 7.92971 12.2714 8.15139C12.2714 8.51681 12.3754 8.91304 12.6383 9.24596C12.8691 9.53827 13.1942 9.89305 13.5727 10.1821C13.9339 10.458 14.4422 10.75 15.0214 10.75C15.0801 10.75 15.1252 10.7549 15.159 10.7613C15.1446 10.7895 15.127 10.8193 15.1067 10.8498C14.9274 11.1186 14.7258 11.3921 14.5454 11.59C14.4683 11.6746 14.4083 11.7307 14.3669 11.764C14.1043 11.8127 13.9322 11.9777 13.846 12.0873C13.7469 12.2133 13.6902 12.3497 13.657 12.4413C13.5882 12.6315 13.5387 12.8682 13.4975 13.0905C13.4653 13.2635 13.4353 13.443 13.4037 13.6311C13.3452 13.9806 13.2816 14.3599 13.1908 14.7822C12.9079 16.0974 12.4516 17.3118 11.6053 17.876C11.5595 17.9065 11.5267 17.9207 11.5073 17.9273C11.4887 17.9335 11.4785 17.9336 11.4785 17.9336C11.4785 17.9336 11.4746 17.9336 11.4682 17.9316C11.461 17.9292 11.4455 17.923 11.4218 17.9072C11.3066 17.8304 11.1296 17.617 10.9655 17.216C10.6387 16.4172 10.5504 15.3465 10.7397 14.7155C10.9826 13.9061 10.783 13.2076 10.3983 12.7191C10.0535 12.2812 9.51336 11.9633 9 11.9633C8.77476 11.9633 8.69012 11.9588 8.53023 11.9057C8.32786 11.8385 8.01217 11.6916 7.38489 11.344C6.84215 11.0432 6.79603 10.9187 6.78361 10.8851C6.77036 10.8494 6.75379 10.7787 6.7506 10.6082C6.74831 10.4858 6.75243 10.3558 6.7578 10.1863C6.76044 10.103 6.76338 10.0101 6.76601 9.90387C6.77058 9.7195 6.80207 9.57955 6.85249 9.47565ZM14.3227 11.7951C14.3227 11.7951 14.3266 11.7922 14.3341 11.7884C14.3264 11.7936 14.3227 11.7951 14.3227 11.7951Z" fill="white"/>
<path fill-rule="evenodd" clip-rule="evenodd" d="M16.8776 14.2956C17.2116 14.4177 17.4063 14.7524 17.3647 15.0908C17.4259 15.1915 17.5378 15.4086 17.5125 15.6938C17.4836 16.0189 17.2965 16.2518 17.1504 16.3979C17.0057 16.5426 16.9009 16.6935 16.8299 16.8207C16.7946 16.884 16.769 16.9391 16.7517 16.9812C16.7368 17.0177 16.7306 17.0386 16.7294 17.0426C16.6326 17.4454 16.2276 17.6936 15.8249 17.5969C15.4221 17.5002 15.174 17.0952 15.2707 16.6925C15.3332 16.4325 15.5283 15.9791 15.9046 15.5378C15.9007 15.5272 15.897 15.5164 15.8934 15.5054C15.8139 15.2631 15.8202 15.0037 15.9157 14.7425C16.0579 14.3534 16.4886 14.1534 16.8776 14.2956Z" fill="white"/>
<path fill-rule="evenodd" clip-rule="evenodd" d="M22 12C22 17.5228 17.5228 22 12 22C6.47715 22 2 17.5228 2 12C2 6.47715 6.47715 2 12 2C17.5228 2 22 6.47715 22 12ZM20.5 12C20.5 16.6944 16.6944 20.5 12 20.5C10.3027 20.5 8.7215 20.0025 7.39442 19.1453C7.70685 17.7933 7.37743 16.3369 6.71157 15.1867C6.03194 14.0128 4.90662 13.0047 3.53636 12.7915C3.5123 12.5309 3.5 12.2669 3.5 12C3.5 8.46008 5.66393 5.42558 8.74115 4.14712L8.72146 4.19636C9.3456 4.44601 10.2182 4.63373 11.0413 4.80884L11.1435 4.83059C11.9676 5.00579 12.7689 5.17616 13.4182 5.39082C13.9014 5.55056 14.4504 5.98663 15.1655 6.55923L15.189 6.57811C15.819 7.0826 16.6108 7.71671 17.433 7.94095L19.785 8.5824C20.2448 9.62822 20.5 10.7843 20.5 12ZM5.41343 15.9383C5.79213 16.5924 6.00414 17.3307 6.01239 18.0331C5.01884 17.047 4.26754 15.8172 3.85564 14.4408C4.44654 14.7033 5.00083 15.2256 5.41343 15.9383ZM18.6629 6.72157C17.1241 4.78183 14.7562 3.5296 12.0948 3.50052C12.7109 3.63541 13.3408 3.78539 13.8891 3.96664C14.6427 4.21579 15.3857 4.81239 15.9933 5.30033L16.103 5.38834C16.8111 5.95534 17.3568 6.36537 17.8277 6.4938L18.6629 6.72157Z" fill="white"/>
</svg>
